<svg width="32" height="21" viewBox="0 0 32 21" fill="none" xmlns="http://www.w3.org/2000/svg">
<path d="M30.9757 14.8137C30.9757 15.6387 29.7874 16.6529 28.821 16.6529H27.9411C27.942 11.6036 27.942 5.94293 27.9411 4.93816C27.9407 4.90841 27.9474 4.87889 27.9608 4.85129C27.9742 4.82369 27.9941 4.79856 28.0193 4.77733C28.0444 4.7561 28.0744 4.73919 28.1075 4.72757C28.1405 4.71595 28.176 4.70985 28.2119 4.70961H30.7036C30.8532 4.70961 30.9758 4.81364 30.9758 4.93995L30.9757 14.8137ZM26.9154 18.4248C26.9154 18.947 26.607 19.8219 24.5407 19.8219C20.5363 19.8219 18.0782 17.2229 18.0782 15.3589C18.0782 15.3589 18.0737 9.33183 18.0737 4.94006C18.0733 4.91027 18.08 4.8807 18.0935 4.85306C18.1069 4.82542 18.1268 4.80025 18.152 4.77901C18.1773 4.75776 18.2073 4.74087 18.2405 4.72928C18.2736 4.7177 18.3092 4.71166 18.3451 4.71152H20.8398C20.9896 4.71152 21.1126 4.81487 21.1126 4.94197V14.626C21.1126 16.2261 22.6412 17.5239 24.5255 17.5239H26.9168L26.9154 18.4248ZM30.8927 3.84111H28.0224C27.4122 3.84111 26.9151 4.26338 26.9151 4.78139V16.6539H24.5238C23.2044 16.6539 22.1351 15.7458 22.1351 14.6258V4.78139C22.1351 4.26215 21.6388 3.84067 21.0273 3.84067H18.1558C17.5443 3.84067 17.0481 4.26215 17.0471 4.78139C17.0456 9.07394 17.0516 15.3591 17.0516 15.3591C17.052 18.6628 21.4132 20.6914 24.5399 20.6914C26.6371 20.6914 27.9397 19.821 27.9397 18.4188V17.5237H28.8206C30.3657 17.5237 32 16.131 32 14.8137V4.78139C32.0015 4.26215 31.5051 3.84111 30.8927 3.84111ZM13.929 16.4429C13.9293 16.4726 13.9226 16.5021 13.9091 16.5297C13.8957 16.5573 13.8758 16.5824 13.8506 16.6036C13.8253 16.6248 13.7953 16.6417 13.7622 16.6532C13.7291 16.6648 13.6936 16.6708 13.6577 16.671H11.163C11.0113 16.671 10.8896 16.5667 10.8903 16.4411V6.7569C10.8903 5.15696 9.36127 3.85914 7.47731 3.85914H5.08593V2.95806C5.08593 2.43691 5.39438 1.56091 7.46068 1.56091C11.4651 1.56091 13.924 4.1598 13.924 6.0239C13.924 6.0239 13.929 12.0803 13.929 16.4429ZM1.29652 16.673C1.14473 16.6693 1.02335 16.5679 1.02511 16.4422V6.57023C1.02511 5.74507 2.2135 4.72955 3.17954 4.72955H4.06028C4.05893 11.9603 4.05893 15.6602 4.06028 16.4417C4.06097 16.5021 4.03275 16.5603 3.98181 16.6035C3.93087 16.6467 3.86135 16.6714 3.78846 16.6722L1.29652 16.673ZM14.9479 6.02401C14.9484 2.71999 10.5871 0.691406 7.46082 0.691406C5.36302 0.691406 4.06028 1.5617 4.06028 2.96399V3.85914H3.17994C1.63431 3.85914 0 5.25181 0 6.56923V16.6014C0 17.1207 0.496199 17.5421 1.10742 17.5421H3.97716C3.995 17.5421 4.01027 17.5381 4.02812 17.5381C4.61461 17.5147 5.08444 17.1055 5.08444 16.6014V4.72887H7.47623C8.79505 4.72887 9.8649 5.63701 9.8649 6.75701V16.6015C9.8649 17.1208 10.3612 17.5423 10.9723 17.5423H13.8444C14.4559 17.5423 14.9518 17.1219 14.9518 16.6015C14.9539 12.2289 14.9479 6.02401 14.9479 6.02401Z" fill="white"/>
</svg>
